<svg width="24" height="24" viewBox="0 0 24 24" fill="none" xmlns="http://www.w3.org/2000/svg">
<path d="M18 11C18 7.13401 14.866 4 11 4C7.13401 4 4 7.13401 4 11C4 14.866 7.13401 18 11 18C14.866 18 18 14.866 18 11ZM20 11C20 15.9706 15.9706 20 11 20C6.02944 20 2 15.9706 2 11C2 6.02944 6.02944 2 11 2C15.9706 2 20 6.02944 20 11Z" fill="white"/>
<path d="M15.9429 15.943C16.3334 15.5525 16.9665 15.5525 17.357 15.943L21.7066 20.2926C22.0971 20.6831 22.0971 21.3161 21.7066 21.7067C21.3161 22.0972 20.6831 22.0972 20.2925 21.7067L15.9429 17.357C15.5524 16.9665 15.5524 16.3335 15.9429 15.943Z" fill="white"/>
</svg>
