<svg width="19" height="19" viewBox="0 0 19 19" fill="none" xmlns="http://www.w3.org/2000/svg">
<path d="M1.93268 14.9963V11.8557C1.93268 11.5796 2.15654 11.3557 2.43268 11.3557C2.70882 11.3557 2.93268 11.5796 2.93268 11.8557V14.9963C2.93268 15.2803 3.04539 15.5534 3.24615 15.7542C3.44685 15.9547 3.71923 16.0676 4.00299 16.0676H14.9971C15.2809 16.0675 15.5533 15.9548 15.754 15.7542C15.9547 15.5534 16.0674 15.2803 16.0674 14.9963V11.8557C16.0674 11.5796 16.2913 11.3557 16.5674 11.3557C16.8435 11.3558 17.0674 11.5796 17.0674 11.8557V14.9963C17.0674 15.5455 16.8493 16.0729 16.461 16.4612C16.0728 16.8493 15.5461 17.0675 14.9971 17.0676H4.00299C3.45402 17.0676 2.92735 16.8493 2.53912 16.4612C2.15083 16.0729 1.93268 15.5455 1.93268 14.9963Z" fill="white"/>
<path d="M9.14596 2.07906C9.34122 1.8838 9.6587 1.8838 9.85397 2.07906L13.7797 6.00485C13.975 6.20011 13.975 6.51759 13.7797 6.71285C13.5845 6.90779 13.2679 6.90781 13.0727 6.71285L9.49947 3.13961L5.92721 6.71285C5.73201 6.9078 5.41538 6.9078 5.22018 6.71285C5.02491 6.51759 5.02491 6.20011 5.22018 6.00485L9.14596 2.07906L9.49947 2.43258H9.50045L9.14596 2.07906Z" fill="white"/>
<path d="M9 11.8555V2.43262C9 2.15647 9.22386 1.93262 9.5 1.93262C9.77614 1.93262 10 2.15647 10 2.43262V11.8555C10 12.1316 9.77614 12.3555 9.5 12.3555C9.22386 12.3555 9 12.1316 9 11.8555Z" fill="white"/>
</svg>
